%TF.GenerationSoftware,KiCad,Pcbnew,7.0.8*%
%TF.CreationDate,2023-10-22T09:09:43+02:00*%
%TF.ProjectId,Wemos UNO,57656d6f-7320-4554-9e4f-2e6b69636164,rev?*%
%TF.SameCoordinates,Original*%
%TF.FileFunction,Soldermask,Top*%
%TF.FilePolarity,Negative*%
%FSLAX46Y46*%
G04 Gerber Fmt 4.6, Leading zero omitted, Abs format (unit mm)*
G04 Created by KiCad (PCBNEW 7.0.8) date 2023-10-22 09:09:43*
%MOMM*%
%LPD*%
G01*
G04 APERTURE LIST*
G04 Aperture macros list*
%AMRoundRect*
0 Rectangle with rounded corners*
0 $1 Rounding radius*
0 $2 $3 $4 $5 $6 $7 $8 $9 X,Y pos of 4 corners*
0 Add a 4 corners polygon primitive as box body*
4,1,4,$2,$3,$4,$5,$6,$7,$8,$9,$2,$3,0*
0 Add four circle primitives for the rounded corners*
1,1,$1+$1,$2,$3*
1,1,$1+$1,$4,$5*
1,1,$1+$1,$6,$7*
1,1,$1+$1,$8,$9*
0 Add four rect primitives between the rounded corners*
20,1,$1+$1,$2,$3,$4,$5,0*
20,1,$1+$1,$4,$5,$6,$7,0*
20,1,$1+$1,$6,$7,$8,$9,0*
20,1,$1+$1,$8,$9,$2,$3,0*%
G04 Aperture macros list end*
%ADD10C,1.600000*%
%ADD11O,1.700000X1.700000*%
%ADD12RoundRect,0.050000X0.800000X0.800000X-0.800000X0.800000X-0.800000X-0.800000X0.800000X-0.800000X0*%
%ADD13C,2.100000*%
G04 APERTURE END LIST*
D10*
%TO.C,LP_rund*%
X155448000Y-46990000D03*
%TD*%
%TO.C,LP_rund*%
X152908000Y-46990000D03*
%TD*%
%TO.C,LP_rund*%
X150368000Y-46990000D03*
%TD*%
%TO.C,LP_rund*%
X146558000Y-46990000D03*
%TD*%
%TO.C,LP_rund*%
X144018000Y-46990000D03*
%TD*%
%TO.C,LP_rund*%
X141478000Y-46990000D03*
%TD*%
%TO.C,LP_rund*%
X137922000Y-46990000D03*
%TD*%
%TO.C,LP_rund*%
X135128000Y-46990000D03*
%TD*%
%TO.C,LP_rund*%
X132588000Y-46990000D03*
%TD*%
%TO.C,LP_rund*%
X115062000Y-69596000D03*
%TD*%
%TO.C,LP_rund*%
X115062000Y-67056000D03*
%TD*%
%TO.C,LP_rund*%
X115062000Y-64516000D03*
%TD*%
D11*
%TO.C,A1*%
X159512000Y-47756000D03*
X159512000Y-50296000D03*
D12*
X111252000Y-56896000D03*
D11*
X159512000Y-87376000D03*
X111252000Y-59436000D03*
X159512000Y-84836000D03*
X111252000Y-61976000D03*
X159512000Y-82296000D03*
X111252000Y-64516000D03*
X159512000Y-79756000D03*
X111252000Y-67056000D03*
X159512000Y-77216000D03*
X111252000Y-69596000D03*
X159512000Y-74676000D03*
X111252000Y-72136000D03*
X159512000Y-70616000D03*
X111252000Y-74676000D03*
X159512000Y-68076000D03*
X111252000Y-79756000D03*
X159512000Y-65536000D03*
X111252000Y-82296000D03*
X159512000Y-62996000D03*
X111252000Y-84836000D03*
X159512000Y-60456000D03*
X111252000Y-87376000D03*
X159512000Y-57916000D03*
X111252000Y-89916000D03*
X159512000Y-55376000D03*
X111252000Y-92456000D03*
X159512000Y-52836000D03*
X159512000Y-92456000D03*
X159512000Y-89916000D03*
%TD*%
D13*
%TO.C,G V SCL SDA*%
X125700000Y-47444000D03*
X123160000Y-47444000D03*
X120620000Y-47444000D03*
X118080000Y-47444000D03*
%TD*%
%TO.C,IO02*%
X123190000Y-69342000D03*
X120650000Y-69342000D03*
X118110000Y-69342000D03*
%TD*%
%TO.C,IO26*%
X151638000Y-86360000D03*
X149098000Y-86360000D03*
X146558000Y-86360000D03*
%TD*%
%TO.C,IO25*%
X146558000Y-77978000D03*
X149098000Y-77978000D03*
X151638000Y-77978000D03*
%TD*%
%TO.C,IO17*%
X151638000Y-69596000D03*
X149098000Y-69596000D03*
X146558000Y-69596000D03*
%TD*%
%TO.C,IO16*%
X146558000Y-61468000D03*
X149098000Y-61468000D03*
X151638000Y-61468000D03*
%TD*%
%TO.C,IO27|*%
X151638000Y-53594000D03*
X149098000Y-53594000D03*
X146558000Y-53594000D03*
%TD*%
%TO.C,IO14*%
X133096000Y-69596000D03*
X135636000Y-69596000D03*
X138176000Y-69596000D03*
%TD*%
%TO.C,IO12*%
X133096000Y-61468000D03*
X135636000Y-61468000D03*
X138176000Y-61468000D03*
%TD*%
%TO.C,IO13|*%
X138176000Y-53594000D03*
X135636000Y-53594000D03*
X133096000Y-53594000D03*
%TD*%
%TO.C,IO05*%
X133096000Y-104394000D03*
X135636000Y-104394000D03*
X138176000Y-104394000D03*
%TD*%
%TO.C,IO23*%
X138176000Y-95250000D03*
X135636000Y-95250000D03*
X133096000Y-95250000D03*
%TD*%
%TO.C,IO19*%
X133096000Y-86360000D03*
X135636000Y-86360000D03*
X138176000Y-86360000D03*
%TD*%
%TO.C,IO18*%
X138176000Y-77724000D03*
X135636000Y-77724000D03*
X133096000Y-77724000D03*
%TD*%
%TO.C,GND*%
X146558000Y-113030000D03*
X149098000Y-113030000D03*
X151638000Y-113030000D03*
X154178000Y-113030000D03*
%TD*%
%TO.C,5V*%
X140462000Y-113030000D03*
X137922000Y-113030000D03*
X135382000Y-113030000D03*
X132842000Y-113030000D03*
%TD*%
%TO.C,3.3V*%
X146558000Y-104394000D03*
X149098000Y-104394000D03*
X151638000Y-104394000D03*
X154178000Y-104394000D03*
%TD*%
%TO.C,G RST V*%
X118110000Y-61722000D03*
X120650000Y-61722000D03*
X123190000Y-61722000D03*
%TD*%
%TO.C,IO04*%
X123190000Y-77724000D03*
X120650000Y-77724000D03*
X118110000Y-77724000D03*
%TD*%
%TO.C,IO35*%
X118110000Y-86360000D03*
X120650000Y-86360000D03*
X123190000Y-86360000D03*
%TD*%
%TO.C,IO34*%
X123190000Y-95504000D03*
X120650000Y-95504000D03*
X118110000Y-95504000D03*
%TD*%
%TO.C,IO36*%
X118110000Y-104140000D03*
X120650000Y-104140000D03*
X123190000Y-104140000D03*
%TD*%
%TO.C,IO39*%
X123190000Y-113030000D03*
X120650000Y-113030000D03*
X118110000Y-113030000D03*
%TD*%
%TO.C,G V SCL SDA*%
X118110000Y-53594000D03*
X120650000Y-53594000D03*
X123190000Y-53594000D03*
X125730000Y-53594000D03*
%TD*%
%TO.C,Rx Tx*%
X154178000Y-95250000D03*
X151638000Y-95250000D03*
X149098000Y-95250000D03*
X146558000Y-95250000D03*
%TD*%
M02*
