%TF.GenerationSoftware,KiCad,Pcbnew,7.0.8*%
%TF.CreationDate,2023-10-22T09:09:43+02:00*%
%TF.ProjectId,Wemos UNO,57656d6f-7320-4554-9e4f-2e6b69636164,rev?*%
%TF.SameCoordinates,Original*%
%TF.FileFunction,Copper,L2,Bot*%
%TF.FilePolarity,Positive*%
%FSLAX46Y46*%
G04 Gerber Fmt 4.6, Leading zero omitted, Abs format (unit mm)*
G04 Created by KiCad (PCBNEW 7.0.8) date 2023-10-22 09:09:43*
%MOMM*%
%LPD*%
G01*
G04 APERTURE LIST*
%TA.AperFunction,ComponentPad*%
%ADD10C,1.500000*%
%TD*%
%TA.AperFunction,ComponentPad*%
%ADD11O,1.600000X1.600000*%
%TD*%
%TA.AperFunction,ComponentPad*%
%ADD12R,1.600000X1.600000*%
%TD*%
%TA.AperFunction,ComponentPad*%
%ADD13C,2.000000*%
%TD*%
%TA.AperFunction,ViaPad*%
%ADD14C,0.800000*%
%TD*%
%TA.AperFunction,Conductor*%
%ADD15C,0.250000*%
%TD*%
G04 APERTURE END LIST*
D10*
%TO.P,LP_rund,1*%
%TO.N,Net-(A1-Pad11)*%
X155448000Y-46990000D03*
%TD*%
%TO.P,LP_rund,1*%
%TO.N,Net-(A1-Pad11)*%
X152908000Y-46990000D03*
%TD*%
%TO.P,LP_rund,1*%
%TO.N,Net-(A1-Pad11)*%
X150368000Y-46990000D03*
%TD*%
%TO.P,LP_rund,1*%
%TO.N,Net-(A1-Pad10)*%
X146558000Y-46990000D03*
%TD*%
%TO.P,LP_rund,1*%
%TO.N,Net-(A1-Pad10)*%
X144018000Y-46990000D03*
%TD*%
%TO.P,LP_rund,1*%
%TO.N,Net-(A1-Pad10)*%
X141478000Y-46990000D03*
%TD*%
%TO.P,LP_rund,1*%
%TO.N,Net-(A1-Pad1)*%
X137922000Y-46990000D03*
%TD*%
%TO.P,LP_rund,1*%
%TO.N,Net-(A1-Pad1)*%
X135128000Y-46990000D03*
%TD*%
%TO.P,LP_rund,1*%
%TO.N,Net-(A1-Pad1)*%
X132588000Y-46990000D03*
%TD*%
%TO.P,LP_rund,1*%
%TO.N,Net-(A1-Pad10)*%
X115062000Y-69596000D03*
%TD*%
%TO.P,LP_rund,1*%
%TO.N,Net-(A1-Pad11)*%
X115062000Y-67056000D03*
%TD*%
%TO.P,LP_rund,1*%
%TO.N,Net-(A1-Pad1)*%
X115062000Y-64516000D03*
%TD*%
D11*
%TO.P,A1,32*%
%TO.N,Net-(A1-Pad32)*%
X159512000Y-47756000D03*
%TO.P,A1,31*%
%TO.N,Net-(A1-Pad31)*%
X159512000Y-50296000D03*
D12*
%TO.P,A1,1*%
%TO.N,Net-(A1-Pad1)*%
X111252000Y-56896000D03*
D11*
%TO.P,A1,17*%
%TO.N,Net-(A1-Pad17)*%
X159512000Y-87376000D03*
%TO.P,A1,2*%
%TO.N,Net-(A1-Pad2)*%
X111252000Y-59436000D03*
%TO.P,A1,18*%
%TO.N,Net-(A1-Pad18)*%
X159512000Y-84836000D03*
%TO.P,A1,3*%
%TO.N,Net-(A1-Pad3)*%
X111252000Y-61976000D03*
%TO.P,A1,19*%
%TO.N,Net-(A1-Pad19)*%
X159512000Y-82296000D03*
%TO.P,A1,4*%
%TO.N,Net-(A1-Pad4)*%
X111252000Y-64516000D03*
%TO.P,A1,20*%
%TO.N,Net-(A1-Pad20)*%
X159512000Y-79756000D03*
%TO.P,A1,5*%
%TO.N,Net-(A1-Pad5)*%
X111252000Y-67056000D03*
%TO.P,A1,21*%
%TO.N,Net-(A1-Pad21)*%
X159512000Y-77216000D03*
%TO.P,A1,6*%
%TO.N,Net-(A1-Pad6)*%
X111252000Y-69596000D03*
%TO.P,A1,22*%
%TO.N,Net-(A1-Pad22)*%
X159512000Y-74676000D03*
%TO.P,A1,7*%
%TO.N,Net-(A1-Pad7)*%
X111252000Y-72136000D03*
%TO.P,A1,23*%
%TO.N,Net-(A1-Pad23)*%
X159512000Y-70616000D03*
%TO.P,A1,8*%
%TO.N,Net-(A1-Pad8)*%
X111252000Y-74676000D03*
%TO.P,A1,24*%
%TO.N,Net-(A1-Pad24)*%
X159512000Y-68076000D03*
%TO.P,A1,9*%
%TO.N,Net-(A1-Pad9)*%
X111252000Y-79756000D03*
%TO.P,A1,25*%
%TO.N,Net-(A1-Pad25)*%
X159512000Y-65536000D03*
%TO.P,A1,10*%
%TO.N,Net-(A1-Pad10)*%
X111252000Y-82296000D03*
%TO.P,A1,26*%
%TO.N,Net-(A1-Pad26)*%
X159512000Y-62996000D03*
%TO.P,A1,11*%
%TO.N,Net-(A1-Pad11)*%
X111252000Y-84836000D03*
%TO.P,A1,27*%
%TO.N,Net-(A1-Pad27)*%
X159512000Y-60456000D03*
%TO.P,A1,12*%
%TO.N,Net-(A1-Pad12)*%
X111252000Y-87376000D03*
%TO.P,A1,28*%
%TO.N,Net-(A1-Pad28)*%
X159512000Y-57916000D03*
%TO.P,A1,13*%
%TO.N,Net-(A1-Pad13)*%
X111252000Y-89916000D03*
%TO.P,A1,29*%
%TO.N,Net-(A1-Pad29)*%
X159512000Y-55376000D03*
%TO.P,A1,14*%
%TO.N,Net-(A1-Pad14)*%
X111252000Y-92456000D03*
%TO.P,A1,30*%
%TO.N,Net-(A1-Pad30)*%
X159512000Y-52836000D03*
%TO.P,A1,15*%
%TO.N,Net-(A1-Pad15)*%
X159512000Y-92456000D03*
%TO.P,A1,16*%
%TO.N,Net-(A1-Pad16)*%
X159512000Y-89916000D03*
%TD*%
D13*
%TO.P,G V SCL SDA,4*%
%TO.N,Net-(A1-Pad31)*%
X125700000Y-47444000D03*
%TO.P,G V SCL SDA,3*%
%TO.N,Net-(A1-Pad32)*%
X123160000Y-47444000D03*
%TO.P,G V SCL SDA,2*%
%TO.N,Net-(A1-Pad4)*%
X120620000Y-47444000D03*
%TO.P,G V SCL SDA,1*%
%TO.N,Net-(A1-Pad29)*%
X118080000Y-47444000D03*
%TD*%
%TO.P,IO02,3*%
%TO.N,Net-(A1-Pad4)*%
X123190000Y-69342000D03*
%TO.P,IO02,2*%
%TO.N,Net-(A1-Pad9)*%
X120650000Y-69342000D03*
%TO.P,IO02,1*%
%TO.N,Net-(A1-Pad29)*%
X118110000Y-69342000D03*
%TD*%
%TO.P,IO26,3*%
%TO.N,Net-(A1-Pad4)*%
X151638000Y-86360000D03*
%TO.P,IO26,2*%
%TO.N,Net-(A1-Pad17)*%
X149098000Y-86360000D03*
%TO.P,IO26,1*%
%TO.N,Net-(A1-Pad29)*%
X146558000Y-86360000D03*
%TD*%
%TO.P,IO25,1*%
%TO.N,Net-(A1-Pad29)*%
X146558000Y-77978000D03*
%TO.P,IO25,2*%
%TO.N,Net-(A1-Pad18)*%
X149098000Y-77978000D03*
%TO.P,IO25,3*%
%TO.N,Net-(A1-Pad4)*%
X151638000Y-77978000D03*
%TD*%
%TO.P,IO17,3*%
%TO.N,Net-(A1-Pad4)*%
X151638000Y-69596000D03*
%TO.P,IO17,2*%
%TO.N,Net-(A1-Pad19)*%
X149098000Y-69596000D03*
%TO.P,IO17,1*%
%TO.N,Net-(A1-Pad29)*%
X146558000Y-69596000D03*
%TD*%
%TO.P,IO16,1*%
%TO.N,Net-(A1-Pad29)*%
X146558000Y-61468000D03*
%TO.P,IO16,2*%
%TO.N,Net-(A1-Pad20)*%
X149098000Y-61468000D03*
%TO.P,IO16,3*%
%TO.N,Net-(A1-Pad4)*%
X151638000Y-61468000D03*
%TD*%
%TO.P,IO27|,3*%
%TO.N,Net-(A1-Pad4)*%
X151638000Y-53594000D03*
%TO.P,IO27|,2*%
%TO.N,Net-(A1-Pad21)*%
X149098000Y-53594000D03*
%TO.P,IO27|,1*%
%TO.N,Net-(A1-Pad29)*%
X146558000Y-53594000D03*
%TD*%
%TO.P,IO14,1*%
%TO.N,Net-(A1-Pad29)*%
X133096000Y-69596000D03*
%TO.P,IO14,2*%
%TO.N,Net-(A1-Pad22)*%
X135636000Y-69596000D03*
%TO.P,IO14,3*%
%TO.N,Net-(A1-Pad4)*%
X138176000Y-69596000D03*
%TD*%
%TO.P,IO12,1*%
%TO.N,Net-(A1-Pad29)*%
X133096000Y-61468000D03*
%TO.P,IO12,2*%
%TO.N,Net-(A1-Pad23)*%
X135636000Y-61468000D03*
%TO.P,IO12,3*%
%TO.N,Net-(A1-Pad4)*%
X138176000Y-61468000D03*
%TD*%
%TO.P,IO13|,3*%
%TO.N,Net-(A1-Pad4)*%
X138176000Y-53594000D03*
%TO.P,IO13|,2*%
%TO.N,Net-(A1-Pad24)*%
X135636000Y-53594000D03*
%TO.P,IO13|,1*%
%TO.N,Net-(A1-Pad29)*%
X133096000Y-53594000D03*
%TD*%
%TO.P,IO05,1*%
%TO.N,Net-(A1-Pad29)*%
X133096000Y-104394000D03*
%TO.P,IO05,2*%
%TO.N,Net-(A1-Pad25)*%
X135636000Y-104394000D03*
%TO.P,IO05,3*%
%TO.N,Net-(A1-Pad4)*%
X138176000Y-104394000D03*
%TD*%
%TO.P,IO23,3*%
%TO.N,Net-(A1-Pad4)*%
X138176000Y-95250000D03*
%TO.P,IO23,2*%
%TO.N,Net-(A1-Pad26)*%
X135636000Y-95250000D03*
%TO.P,IO23,1*%
%TO.N,Net-(A1-Pad29)*%
X133096000Y-95250000D03*
%TD*%
%TO.P,IO19,1*%
%TO.N,Net-(A1-Pad29)*%
X133096000Y-86360000D03*
%TO.P,IO19,2*%
%TO.N,Net-(A1-Pad27)*%
X135636000Y-86360000D03*
%TO.P,IO19,3*%
%TO.N,Net-(A1-Pad4)*%
X138176000Y-86360000D03*
%TD*%
%TO.P,IO18,3*%
%TO.N,Net-(A1-Pad4)*%
X138176000Y-77724000D03*
%TO.P,IO18,2*%
%TO.N,Net-(A1-Pad28)*%
X135636000Y-77724000D03*
%TO.P,IO18,1*%
%TO.N,Net-(A1-Pad29)*%
X133096000Y-77724000D03*
%TD*%
%TO.P,GND,1*%
%TO.N,Net-(A1-Pad29)*%
X146558000Y-113030000D03*
%TO.P,GND,2*%
X149098000Y-113030000D03*
%TO.P,GND,3*%
X151638000Y-113030000D03*
%TO.P,GND,4*%
X154178000Y-113030000D03*
%TD*%
%TO.P,5V,4*%
%TO.N,Net-(A1-Pad5)*%
X140462000Y-113030000D03*
%TO.P,5V,3*%
X137922000Y-113030000D03*
%TO.P,5V,2*%
X135382000Y-113030000D03*
%TO.P,5V,1*%
X132842000Y-113030000D03*
%TD*%
%TO.P,3.3V,1*%
%TO.N,Net-(A1-Pad4)*%
X146558000Y-104394000D03*
%TO.P,3.3V,2*%
X149098000Y-104394000D03*
%TO.P,3.3V,3*%
X151638000Y-104394000D03*
%TO.P,3.3V,4*%
X154178000Y-104394000D03*
%TD*%
%TO.P,G RST V,1*%
%TO.N,Net-(A1-Pad29)*%
X118110000Y-61722000D03*
%TO.P,G RST V,2*%
%TO.N,Net-(A1-Pad3)*%
X120650000Y-61722000D03*
%TO.P,G RST V,3*%
%TO.N,Net-(A1-Pad4)*%
X123190000Y-61722000D03*
%TD*%
%TO.P,IO04,3*%
%TO.N,Net-(A1-Pad4)*%
X123190000Y-77724000D03*
%TO.P,IO04,2*%
%TO.N,Net-(A1-Pad10)*%
X120650000Y-77724000D03*
%TO.P,IO04,1*%
%TO.N,Net-(A1-Pad29)*%
X118110000Y-77724000D03*
%TD*%
%TO.P,IO35,1*%
%TO.N,Net-(A1-Pad29)*%
X118110000Y-86360000D03*
%TO.P,IO35,2*%
%TO.N,Net-(A1-Pad11)*%
X120650000Y-86360000D03*
%TO.P,IO35,3*%
%TO.N,Net-(A1-Pad4)*%
X123190000Y-86360000D03*
%TD*%
%TO.P,IO34,3*%
%TO.N,Net-(A1-Pad4)*%
X123190000Y-95504000D03*
%TO.P,IO34,2*%
%TO.N,Net-(A1-Pad12)*%
X120650000Y-95504000D03*
%TO.P,IO34,1*%
%TO.N,Net-(A1-Pad29)*%
X118110000Y-95504000D03*
%TD*%
%TO.P,IO36,1*%
%TO.N,Net-(A1-Pad29)*%
X118110000Y-104140000D03*
%TO.P,IO36,2*%
%TO.N,Net-(A1-Pad13)*%
X120650000Y-104140000D03*
%TO.P,IO36,3*%
%TO.N,Net-(A1-Pad4)*%
X123190000Y-104140000D03*
%TD*%
%TO.P,IO39,3*%
%TO.N,Net-(A1-Pad4)*%
X123190000Y-113030000D03*
%TO.P,IO39,2*%
%TO.N,Net-(A1-Pad14)*%
X120650000Y-113030000D03*
%TO.P,IO39,1*%
%TO.N,Net-(A1-Pad29)*%
X118110000Y-113030000D03*
%TD*%
%TO.P,G V SCL SDA,1*%
%TO.N,Net-(A1-Pad29)*%
X118110000Y-53594000D03*
%TO.P,G V SCL SDA,2*%
%TO.N,Net-(A1-Pad4)*%
X120650000Y-53594000D03*
%TO.P,G V SCL SDA,3*%
%TO.N,Net-(A1-Pad32)*%
X123190000Y-53594000D03*
%TO.P,G V SCL SDA,4*%
%TO.N,Net-(A1-Pad31)*%
X125730000Y-53594000D03*
%TD*%
%TO.P,Rx Tx,4*%
%TO.N,Net-(A1-Pad16)*%
X154178000Y-95250000D03*
%TO.P,Rx Tx,3*%
%TO.N,Net-(A1-Pad15)*%
X151638000Y-95250000D03*
%TO.P,Rx Tx,2*%
%TO.N,Net-(A1-Pad4)*%
X149098000Y-95250000D03*
%TO.P,Rx Tx,1*%
%TO.N,Net-(A1-Pad29)*%
X146558000Y-95250000D03*
%TD*%
D14*
%TO.N,Net-(A1-Pad1)*%
X128270000Y-45974000D03*
%TO.N,Net-(A1-Pad4)*%
X123190000Y-80518000D03*
%TO.N,Net-(A1-Pad22)*%
X152908000Y-73152000D03*
X150368000Y-73152000D03*
X147828000Y-73152000D03*
X145288000Y-73152000D03*
X143002000Y-73152000D03*
%TO.N,Net-(A1-Pad23)*%
X153162000Y-70612000D03*
X150368000Y-71628000D03*
X148082000Y-71628000D03*
X145288000Y-71628000D03*
X143002000Y-65278000D03*
%TO.N,Net-(A1-Pad24)*%
X153162000Y-58928000D03*
%TO.N,Net-(A1-Pad10)*%
X140208000Y-73914000D03*
X137160000Y-74676000D03*
X134112000Y-74930000D03*
X120904000Y-73914000D03*
X119121347Y-72893347D03*
%TO.N,Net-(A1-Pad26)*%
X152654000Y-67056000D03*
X155099010Y-67056000D03*
%TO.N,Net-(A1-Pad11)*%
X130556000Y-49571000D03*
X128270000Y-55626000D03*
%TO.N,Net-(A1-Pad27)*%
X152908000Y-56388000D03*
X150626653Y-56383347D03*
X148086653Y-56383347D03*
X145038653Y-56383347D03*
X142240000Y-82296000D03*
%TO.N,Net-(A1-Pad28)*%
X129032000Y-54102000D03*
%TD*%
D15*
%TO.N,Net-(A1-Pad1)*%
X115062000Y-43942000D02*
X115062000Y-64516000D01*
X128270000Y-43942000D02*
X115062000Y-43942000D01*
X128270000Y-45974000D02*
X128270000Y-43942000D01*
%TO.N,Net-(A1-Pad4)*%
X123190000Y-113030000D02*
X123190000Y-104140000D01*
X123190000Y-104140000D02*
X123190000Y-95504000D01*
X123190000Y-95504000D02*
X123190000Y-86360000D01*
X123190000Y-77724000D02*
X123190000Y-69342000D01*
X123190000Y-69342000D02*
X123190000Y-61722000D01*
X138176000Y-53594000D02*
X138176000Y-61468000D01*
X138176000Y-61468000D02*
X138176000Y-69596000D01*
X138176000Y-69596000D02*
X138176000Y-77724000D01*
X138176000Y-77724000D02*
X138176000Y-86360000D01*
X138176000Y-86360000D02*
X138176000Y-95250000D01*
X138176000Y-95250000D02*
X138176000Y-104394000D01*
X154178000Y-104394000D02*
X151638000Y-104394000D01*
X149098000Y-104394000D02*
X146558000Y-104394000D01*
X146558000Y-104394000D02*
X151638000Y-104394000D01*
X149098000Y-104394000D02*
X149098000Y-95250000D01*
X149098000Y-88900000D02*
X151638000Y-86360000D01*
X149098000Y-95250000D02*
X149098000Y-88900000D01*
X151638000Y-86360000D02*
X151638000Y-77978000D01*
X151638000Y-77978000D02*
X151638000Y-69596000D01*
X151638000Y-69596000D02*
X151638000Y-61468000D01*
X151638000Y-61468000D02*
X151638000Y-53594000D01*
X123190000Y-86360000D02*
X123190000Y-80518000D01*
X123190000Y-80518000D02*
X123190000Y-77724000D01*
X120620000Y-53564000D02*
X120650000Y-53594000D01*
X120620000Y-47444000D02*
X120620000Y-53564000D01*
%TO.N,Net-(A1-Pad5)*%
X132842000Y-116078000D02*
X132842000Y-113030000D01*
X132842000Y-113030000D02*
X135382000Y-113030000D01*
X135382000Y-113030000D02*
X137922000Y-113030000D01*
X137922000Y-113030000D02*
X140462000Y-113030000D01*
X111252000Y-67056000D02*
X109982000Y-67056000D01*
X109982000Y-67056000D02*
X109220000Y-67818000D01*
X109220000Y-106101002D02*
X111760000Y-108641002D01*
X109220000Y-67818000D02*
X109220000Y-106101002D01*
X111760000Y-108641002D02*
X111760000Y-116332000D01*
X113919000Y-118491000D02*
X130429000Y-118491000D01*
X111760000Y-116332000D02*
X113919000Y-118491000D01*
X130429000Y-118491000D02*
X132842000Y-116078000D01*
X130302000Y-118618000D02*
X130429000Y-118491000D01*
%TO.N,Net-(A1-Pad22)*%
X159512000Y-74676000D02*
X157988000Y-73152000D01*
X157988000Y-73152000D02*
X152908000Y-73152000D01*
X150368000Y-73152000D02*
X147828000Y-73152000D01*
X145288000Y-73152000D02*
X143002000Y-73152000D01*
%TO.N,Net-(A1-Pad23)*%
X159512000Y-70616000D02*
X153166000Y-70616000D01*
X153166000Y-70616000D02*
X153162000Y-70612000D01*
X150368000Y-71628000D02*
X148082000Y-71628000D01*
X145288000Y-71628000D02*
X143002000Y-69342000D01*
X143002000Y-69342000D02*
X143002000Y-65278000D01*
%TO.N,Net-(A1-Pad24)*%
X153162000Y-58928000D02*
X154940000Y-58928000D01*
X154940000Y-58928000D02*
X155448000Y-59436000D01*
X155448000Y-59436000D02*
X155448000Y-66040000D01*
X157484000Y-68076000D02*
X159512000Y-68076000D01*
X155448000Y-66040000D02*
X157484000Y-68076000D01*
%TO.N,Net-(A1-Pad10)*%
X146558000Y-46990000D02*
X144018000Y-46990000D01*
X144018000Y-46990000D02*
X141478000Y-46990000D01*
X141478000Y-46990000D02*
X141478000Y-48514000D01*
X141478000Y-48514000D02*
X140716000Y-49276000D01*
X140716000Y-73406000D02*
X140208000Y-73914000D01*
X140716000Y-49276000D02*
X140716000Y-73406000D01*
X134366000Y-74676000D02*
X134112000Y-74930000D01*
X137160000Y-74676000D02*
X134366000Y-74676000D01*
X120142000Y-73914000D02*
X119121347Y-72893347D01*
X120904000Y-73914000D02*
X120142000Y-73914000D01*
%TO.N,Net-(A1-Pad26)*%
X152654000Y-67056000D02*
X155099010Y-67056000D01*
%TO.N,Net-(A1-Pad11)*%
X130556000Y-49571000D02*
X130048000Y-50079000D01*
X128581002Y-55626000D02*
X128270000Y-55626000D01*
X130048000Y-54159002D02*
X128581002Y-55626000D01*
X130048000Y-50079000D02*
X130048000Y-54159002D01*
%TO.N,Net-(A1-Pad27)*%
X159512000Y-60456000D02*
X156714000Y-57658000D01*
X156714000Y-57658000D02*
X156714000Y-57654000D01*
X156714000Y-57654000D02*
X154174000Y-57654000D01*
X154174000Y-57654000D02*
X152908000Y-56388000D01*
X150626653Y-56383347D02*
X148086653Y-56383347D01*
X148086653Y-56383347D02*
X148086653Y-59250347D01*
X145038653Y-56383347D02*
X142752653Y-56383347D01*
X142752653Y-56383347D02*
X142240000Y-56896000D01*
X142240000Y-56896000D02*
X142240000Y-82296000D01*
%TO.N,Net-(A1-Pad28)*%
X159512000Y-57916000D02*
X161290000Y-56138000D01*
X161290000Y-56138000D02*
X161290000Y-46736000D01*
X161290000Y-46736000D02*
X160020000Y-45466000D01*
X160020000Y-45466000D02*
X130556000Y-45466000D01*
X130556000Y-45466000D02*
X130302000Y-45466000D01*
X130302000Y-45466000D02*
X129032000Y-46736000D01*
X129032000Y-46736000D02*
X129032000Y-54102000D01*
%TO.N,Net-(A1-Pad29)*%
X118110000Y-61722000D02*
X118110000Y-69342000D01*
X118110000Y-77724000D02*
X118110000Y-69342000D01*
X118110000Y-86360000D02*
X118110000Y-95504000D01*
X118110000Y-95504000D02*
X118110000Y-104140000D01*
X118110000Y-104140000D02*
X118110000Y-113030000D01*
X118110000Y-77724000D02*
X118110000Y-78486000D01*
X118110000Y-78232000D02*
X118110000Y-78486000D01*
X118110000Y-78486000D02*
X118110000Y-86360000D01*
X133096000Y-104394000D02*
X133096000Y-95250000D01*
X133096000Y-95250000D02*
X133096000Y-86360000D01*
X133096000Y-86360000D02*
X133096000Y-77724000D01*
X133096000Y-77724000D02*
X133096000Y-69596000D01*
X133096000Y-69596000D02*
X133096000Y-61468000D01*
X118364000Y-56896000D02*
X118110000Y-56642000D01*
X133096000Y-56896000D02*
X118364000Y-56896000D01*
X133096000Y-61468000D02*
X133096000Y-56896000D01*
X133096000Y-56896000D02*
X133096000Y-53594000D01*
X118110000Y-53594000D02*
X118110000Y-56642000D01*
X118110000Y-56642000D02*
X118110000Y-61722000D01*
X154178000Y-113030000D02*
X151638000Y-113030000D01*
X151638000Y-113030000D02*
X149098000Y-113030000D01*
X149098000Y-113030000D02*
X146558000Y-113030000D01*
X146558000Y-113030000D02*
X144526000Y-113030000D01*
X144526000Y-113030000D02*
X143256000Y-111760000D01*
X143256000Y-111760000D02*
X143256000Y-108458000D01*
X141732000Y-106934000D02*
X134620000Y-106934000D01*
X133096000Y-105410000D02*
X133096000Y-104394000D01*
X134620000Y-106934000D02*
X133096000Y-105410000D01*
X146558000Y-95250000D02*
X143764000Y-98044000D01*
X143764000Y-98044000D02*
X143764000Y-106680000D01*
X143764000Y-106680000D02*
X142621000Y-107823000D01*
X143256000Y-108458000D02*
X142621000Y-107823000D01*
X142621000Y-107823000D02*
X141732000Y-106934000D01*
X146558000Y-53594000D02*
X146558000Y-61468000D01*
X146558000Y-61468000D02*
X146558000Y-69596000D01*
X146558000Y-69596000D02*
X146558000Y-77978000D01*
X146558000Y-77978000D02*
X146558000Y-86360000D01*
X146558000Y-86360000D02*
X146558000Y-95250000D01*
X159512000Y-55376000D02*
X154944000Y-55376000D01*
X154944000Y-55376000D02*
X154432000Y-54864000D01*
X154432000Y-54864000D02*
X154432000Y-52070000D01*
X154432000Y-52070000D02*
X153924000Y-51562000D01*
X153924000Y-51562000D02*
X146812000Y-51562000D01*
X146558000Y-51816000D02*
X146558000Y-53594000D01*
X146812000Y-51562000D02*
X146558000Y-51816000D01*
X118110000Y-47474000D02*
X118080000Y-47444000D01*
X118110000Y-53594000D02*
X118110000Y-47474000D01*
%TO.N,Net-(A1-Pad15)*%
X159512000Y-92456000D02*
X153670000Y-92456000D01*
X151638000Y-94488000D02*
X151638000Y-95250000D01*
X153670000Y-92456000D02*
X151638000Y-94488000D01*
%TD*%
M02*
